<svg width="16" height="16" viewBox="0 0 16 16" fill="none" xmlns="http://www.w3.org/2000/svg">
<g opacity="0.6">
<path d="M9.19238 11.9014C9.19238 12.1032 9.14355 12.2871 9.0459 12.4531C8.94499 12.6191 8.81152 12.7526 8.64551 12.8535C8.47949 12.9512 8.2972 13 8.09863 13C7.89681 13 7.71289 12.9512 7.54687 12.8535C7.38086 12.7526 7.24902 12.6191 7.15137 12.4531C7.05046 12.2871 7 12.1032 7 11.9014C7 11.7028 7.05046 11.5205 7.15137 11.3545C7.24902 11.1885 7.38086 11.0566 7.54687 10.959C7.71289 10.8581 7.89681 10.8076 8.09863 10.8076C8.2972 10.8076 8.47949 10.8581 8.64551 10.959C8.81152 11.0566 8.94499 11.1885 9.0459 11.3545C9.14355 11.5205 9.19238 11.7028 9.19238 11.9014ZM9.19238 8.21484C9.19238 8.41667 9.14355 8.60059 9.0459 8.7666C8.94499 8.93262 8.81152 9.06608 8.64551 9.16699C8.47949 9.26465 8.2972 9.31348 8.09863 9.31348C7.89681 9.31348 7.71289 9.26465 7.54687 9.16699C7.38086 9.06608 7.24902 8.93262 7.15137 8.7666C7.05046 8.60059 7 8.41667 7 8.21484C7 8.01628 7.05046 7.83398 7.15137 7.66797C7.24902 7.50195 7.38086 7.37012 7.54687 7.27246C7.71289 7.17155 7.89681 7.12109 8.09863 7.12109C8.2972 7.12109 8.47949 7.17155 8.64551 7.27246C8.81152 7.37012 8.94499 7.50195 9.0459 7.66797C9.14355 7.83398 9.19238 8.01628 9.19238 8.21484ZM9.19238 4.52832C9.19238 4.73014 9.14355 4.91406 9.0459 5.08008C8.94499 5.24609 8.81152 5.37956 8.64551 5.48047C8.47949 5.57812 8.2972 5.62695 8.09863 5.62695C7.89681 5.62695 7.71289 5.57812 7.54687 5.48047C7.38086 5.37956 7.24902 5.24609 7.15137 5.08008C7.05046 4.91406 7 4.73014 7 4.52832C7 4.3265 7.05046 4.14421 7.15137 3.98145C7.24902 3.81543 7.38086 3.68359 7.54687 3.58594C7.71289 3.48503 7.89681 3.43457 8.09863 3.43457C8.2972 3.43457 8.47949 3.48503 8.64551 3.58594C8.81152 3.68359 8.94499 3.81543 9.0459 3.98145C9.14355 4.14421 9.19238 4.3265 9.19238 4.52832Z" fill="white"/>
</g>
</svg>
