<svg width="20" height="10" viewBox="0 0 20 10" fill="none" xmlns="http://www.w3.org/2000/svg">
<path d="M7.30957 9.18066L6.08887 9.64453C6.01074 9.67708 5.93913 9.65918 5.87402 9.59082C5.80892 9.52572 5.79264 9.45247 5.8252 9.37109L6.30859 8.17969L11.9189 2.56934L12.9199 3.5752L7.30957 9.18066ZM13.4131 3.08691L12.4072 2.08105L12.959 1.53418C13.0957 1.40072 13.2373 1.3291 13.3838 1.31934C13.5335 1.30957 13.6702 1.36816 13.7939 1.49512L14.0039 1.70508C14.1309 1.83203 14.1911 1.96875 14.1846 2.11523C14.1781 2.25846 14.1064 2.40007 13.9697 2.54004L13.4131 3.08691Z" fill="white"/>
</svg>
