<svg width="30" height="16" viewBox="0 0 30 16" fill="none" xmlns="http://www.w3.org/2000/svg">
<path d="M4.75 15.7344C3.85938 15.7344 3.17708 15.4974 2.70312 15.0234C2.22917 14.5547 1.99219 13.8776 1.99219 12.9922V3.46875C1.99219 2.58854 2.22396 1.91406 2.6875 1.44531C3.15625 0.971354 3.79427 0.734375 4.60156 0.734375H6.78906C7.08594 0.734375 7.33854 0.755208 7.54688 0.796875C7.76042 0.833333 7.95573 0.898438 8.13281 0.992188C8.3099 1.08073 8.5 1.20312 8.70312 1.35938L9.10156 1.67188C9.34635 1.86458 9.57552 2 9.78906 2.07812C10.0078 2.15625 10.2682 2.19531 10.5703 2.19531H17.4297C18.3151 2.19531 18.9948 2.43229 19.4688 2.90625C19.9479 3.38021 20.1875 4.05729 20.1875 4.9375V12.9922C20.1875 13.8776 19.9557 14.5547 19.4922 15.0234C19.0286 15.4974 18.3828 15.7344 17.5547 15.7344H4.75ZM4.96875 13.7188H17.2031C17.5156 13.7188 17.7552 13.6406 17.9219 13.4844C18.0885 13.3281 18.1719 13.0833 18.1719 12.75V5.1875C18.1719 4.85417 18.0885 4.60938 17.9219 4.45312C17.7552 4.29688 17.5156 4.21875 17.2031 4.21875H10.0234C9.72656 4.21875 9.47135 4.20052 9.25781 4.16406C9.04427 4.1224 8.84635 4.05729 8.66406 3.96875C8.48698 3.875 8.29688 3.75 8.09375 3.59375L7.70312 3.27344C7.45312 3.08073 7.22135 2.94531 7.00781 2.86719C6.79948 2.78906 6.54427 2.75 6.24219 2.75H4.99219C4.67969 2.75 4.4375 2.83333 4.26562 3C4.09375 3.16667 4.00781 3.40365 4.00781 3.71094V12.75C4.00781 13.0833 4.08854 13.3281 4.25 13.4844C4.41667 13.6406 4.65625 13.7188 4.96875 13.7188ZM3.28906 7.3125V5.66406H18.9219V7.3125H3.28906Z" fill="white"/>
</svg>
