<svg width="20" height="12" viewBox="0 0 20 12" fill="none" xmlns="http://www.w3.org/2000/svg">
<path d="M7.18262 11.6797C6.64225 11.6797 6.23047 11.5397 5.94727 11.2598C5.66732 10.9831 5.52734 10.5762 5.52734 10.0391V5.2832C5.52734 4.74609 5.66732 4.33919 5.94727 4.0625C6.23047 3.78255 6.64225 3.64258 7.18262 3.64258H8.55957V4.73145H7.27051C7.05566 4.73145 6.89128 4.78678 6.77734 4.89746C6.66667 5.00488 6.61133 5.1709 6.61133 5.39551V9.92676C6.61133 10.1514 6.66667 10.319 6.77734 10.4297C6.89128 10.5404 7.05566 10.5957 7.27051 10.5957H12.7246C12.9362 10.5957 13.099 10.5404 13.2129 10.4297C13.3268 10.319 13.3838 10.1514 13.3838 9.92676V5.39551C13.3838 5.1709 13.3268 5.00488 13.2129 4.89746C13.099 4.78678 12.9362 4.73145 12.7246 4.73145H11.4404V3.64258H12.8174C13.3577 3.64258 13.7679 3.78255 14.0479 4.0625C14.3311 4.34245 14.4727 4.74935 14.4727 5.2832V10.0391C14.4727 10.5729 14.3311 10.9798 14.0479 11.2598C13.7679 11.5397 13.3577 11.6797 12.8174 11.6797H7.18262ZM9.99512 7.73926C9.8584 7.73926 9.74121 7.69043 9.64355 7.59277C9.5459 7.49512 9.49707 7.37956 9.49707 7.24609V2.39258L9.54102 1.6748L9.25781 2.04102L8.61328 2.72949C8.52539 2.82389 8.41471 2.87109 8.28125 2.87109C8.16081 2.87109 8.05664 2.83203 7.96875 2.75391C7.88411 2.67253 7.8418 2.56999 7.8418 2.44629C7.8418 2.33236 7.88737 2.22819 7.97852 2.13379L9.60938 0.566406C9.67773 0.501302 9.74284 0.457357 9.80469 0.43457C9.86654 0.408529 9.93001 0.395508 9.99512 0.395508C10.0635 0.395508 10.1286 0.408529 10.1904 0.43457C10.2555 0.457357 10.3206 0.501302 10.3857 0.566406L12.0166 2.13379C12.1077 2.22819 12.1533 2.33236 12.1533 2.44629C12.1533 2.56999 12.1094 2.67253 12.0215 2.75391C11.9336 2.83203 11.8311 2.87109 11.7139 2.87109C11.5837 2.87109 11.4746 2.82389 11.3867 2.72949L10.7373 2.04102L10.459 1.6748L10.498 2.39258V7.24609C10.498 7.37956 10.4492 7.49512 10.3516 7.59277C10.2572 7.69043 10.1383 7.73926 9.99512 7.73926Z" fill="white"/>
</svg>
