<svg width="30" height="18" viewBox="0 0 30 18" fill="none" xmlns="http://www.w3.org/2000/svg">
<path d="M5.04688 17.1328C4.82812 16.9661 4.69531 16.7474 4.64844 16.4766C4.60156 16.2057 4.63802 15.8958 4.75781 15.5469L6.3125 10.9219L2.34375 8.07031C2.04167 7.85677 1.82812 7.6276 1.70312 7.38281C1.57812 7.13281 1.5625 6.875 1.65625 6.60938C1.74479 6.34896 1.90885 6.15625 2.14844 6.03125C2.39323 5.90104 2.69792 5.83854 3.0625 5.84375L7.9375 5.88281L9.42188 1.22656C9.53646 0.867188 9.6901 0.59375 9.88281 0.40625C10.0807 0.213542 10.3177 0.117188 10.5938 0.117188C10.8698 0.117188 11.1042 0.213542 11.2969 0.40625C11.4948 0.59375 11.651 0.867188 11.7656 1.22656L13.2422 5.88281L18.1172 5.84375C18.487 5.83854 18.7917 5.90104 19.0312 6.03125C19.276 6.15625 19.4427 6.35156 19.5312 6.61719C19.6198 6.88281 19.6016 7.13802 19.4766 7.38281C19.3568 7.6276 19.1458 7.85677 18.8438 8.07031L14.8672 10.9219L16.4297 15.5469C16.5495 15.8958 16.5859 16.2057 16.5391 16.4766C16.4922 16.7474 16.3568 16.9661 16.1328 17.1328C15.9089 17.3047 15.6615 17.3672 15.3906 17.3203C15.1198 17.2786 14.8333 17.1484 14.5312 16.9297L10.5938 14.0312L6.64844 16.9297C6.35156 17.1484 6.0651 17.2786 5.78906 17.3203C5.51823 17.3672 5.27083 17.3047 5.04688 17.1328Z" fill="white"/>
</svg>
